<svg id="noun_Bank_3543138" xmlns="http://www.w3.org/2000/svg" width="19.426" height="21.294" viewBox="0 0 19.426 21.294">
  <path id="Path_154" data-name="Path 154" d="M25.729,14.083h-15.5v-.772h15.5Zm1.226-2H12.161l5.712-4.79,4.71,3.407.5.359.718-.994-.5-.359L17.817,5.742l-7.064,5.923-.47.393.022.026H9v3.223H26.954Z" transform="translate(-9 -5.742)" fill="#fbae17"/>
  <path id="Path_155" data-name="Path 155" d="M27.2,41.134H18.414V37.1H27.2ZM15.934,39.689H10.226V38.468h6.962v3.892H28.426V35.873H25.415V31.652H24.189v4.221h-.7V31.652H22.265v4.221H19.553V31.652H18.327v4.221h-.7V31.652H16.4v5.59H13.708v-5.59H12.483v5.59h-.7v-5.59H10.558v5.59H9v3.672h6.934V39.689Z" transform="translate(-9 -21.066)" fill="#fbae17"/>
</svg>
