<svg xmlns="http://www.w3.org/2000/svg" width="19.41" height="20.696" viewBox="0 0 19.41 20.696">
  <g id="noun_documents_778860" transform="translate(-0.929 -5)">
    <g id="Group_337" data-name="Group 337" transform="translate(0.929 5)">
      <g id="Group_336" data-name="Group 336" transform="translate(0 0)">
        <path id="Path_146" data-name="Path 146" d="M22.63,16.3H9.469A1.82,1.82,0,0,0,7.7,18.161V32.539A1.806,1.806,0,0,0,9.469,34.4h10.29a2.752,2.752,0,0,0,2.021-.9l1.815-1.975a3.069,3.069,0,0,0,.8-2.113V18.161A1.82,1.82,0,0,0,22.63,16.3ZM9.1,32.516V18.161a.419.419,0,0,1,.368-.459H22.63a.419.419,0,0,1,.368.459V29.393a1.118,1.118,0,0,1-.023.276H20.218a.691.691,0,0,0-.689.689V33H9.469A.459.459,0,0,1,9.1,32.516Zm11.806-.161V31.046H22.1Z" transform="translate(-7.7 -13.704)" fill="#06283a"/>
        <path id="Path_147" data-name="Path 147" d="M19.989,32.278H30a.691.691,0,0,0,.689-.689A.707.707,0,0,0,30,30.9H19.989a.689.689,0,1,0,0,1.378Z" transform="translate(-16.636 -24.951)" fill="#06283a"/>
        <path id="Path_148" data-name="Path 148" d="M19.989,46.778H30a.691.691,0,0,0,.689-.689A.707.707,0,0,0,30,45.4H19.989a.689.689,0,1,0,0,1.378Z" transform="translate(-16.636 -36.12)" fill="#06283a"/>
        <path id="Path_149" data-name="Path 149" d="M29.981,61.278a.691.691,0,0,0,.689-.689.707.707,0,0,0-.689-.689H19.989a.691.691,0,0,0-.689.689.707.707,0,0,0,.689.689Z" transform="translate(-16.636 -47.29)" fill="#06283a"/>
        <path id="Path_150" data-name="Path 150" d="M35.286,5H22.125a1.728,1.728,0,0,0-1.493.873.332.332,0,0,0,.3.505H35.286a.419.419,0,0,1,.368.459V19.976a.331.331,0,0,0,.574.23,3.069,3.069,0,0,0,.8-2.113V6.861A1.787,1.787,0,0,0,35.286,5Z" transform="translate(-17.622 -5)" fill="#06283a"/>
      </g>
    </g>
  </g>
</svg>
