<svg xmlns="http://www.w3.org/2000/svg" width="17.597" height="17.597" viewBox="0 0 17.597 17.597">
  <g id="noun_Info_1126705" transform="translate(-1.375 -1.375)">
    <path id="Path_156" data-name="Path 156" d="M15.618,13.986a.629.629,0,0,0-.619.637v4.4a.628.628,0,1,0,1.257,0v-4.4a.629.629,0,0,0-.638-.637Z" transform="translate(-5.455 -5.078)" fill="#06283a"/>
    <circle id="Ellipse_19" data-name="Ellipse 19" cx="1" cy="1" r="1" transform="translate(9.173 5.173)" fill="#06283a"/>
    <path id="Path_157" data-name="Path 157" d="M10.8,2a8.8,8.8,0,1,0,8.8,8.8A8.808,8.808,0,0,0,10.8,2Zm0,1.257A7.541,7.541,0,1,1,3.257,10.8,7.532,7.532,0,0,1,10.8,3.257Z" transform="translate(-0.625 -0.625)" fill="#06283a"/>
  </g>
</svg>
