<svg xmlns="http://www.w3.org/2000/svg" width="20.956" height="20.955" viewBox="0 0 20.956 20.955">
  <g id="noun_Profile_picture_1559126" data-name="noun_Profile picture_1559126" transform="translate(-35.61 -75)">
    <g id="Group_339" data-name="Group 339" transform="translate(35.61 75)">
      <g id="Group_338" data-name="Group 338">
        <path id="Path_151" data-name="Path 151" d="M75.83,83.284a.823.823,0,0,0,.83-.83V76.761h5.713a.823.823,0,0,0,.83-.83.835.835,0,0,0-.83-.83H75.83a.835.835,0,0,0-.83.83v6.544A.831.831,0,0,0,75.83,83.284Z" transform="translate(-75 -75.08)" fill="#fbae17"/>
        <path id="Path_152" data-name="Path 152" d="M146.874,75H140.33a.83.83,0,1,0,0,1.661h5.713v5.713a.83.83,0,1,0,1.661,0V75.83A.835.835,0,0,0,146.874,75Z" transform="translate(-126.749 -75)" fill="#fbae17"/>
        <path id="Path_153" data-name="Path 153" d="M95.205,100.989a.835.835,0,0,0-.83.83v3.341H91.093v-1.937a5.545,5.545,0,0,0-2.906-4.863,3.869,3.869,0,0,0,1.3-2.926,3.934,3.934,0,1,0-7.868,0,3.869,3.869,0,0,0,1.3,2.926,5.506,5.506,0,0,0-2.906,4.863v1.937H76.761V101.82a.83.83,0,0,0-1.661,0v6.544a.835.835,0,0,0,.83.83h6.544a.835.835,0,0,0,.83-.83.823.823,0,0,0-.83-.83H76.761v-1.4H94.375v1.4H88.662a.83.83,0,1,0,0,1.661h6.544a.835.835,0,0,0,.83-.83V101.82A.835.835,0,0,0,95.205,100.989Zm-9.647-7.829a2.273,2.273,0,1,1-2.273,2.273A2.287,2.287,0,0,1,85.558,93.161Zm-3.875,11.921v-1.858a3.875,3.875,0,1,1,7.75,0v1.937h-7.75C81.683,105.141,81.683,105.121,81.683,105.081Z" transform="translate(-75.08 -88.238)" fill="#fbae17"/>
      </g>
    </g>
  </g>
</svg>
