<svg id="noun_Profile_picture_1559126" data-name="noun_Profile picture_1559126" xmlns="http://www.w3.org/2000/svg" width="20.478" height="20.478" viewBox="0 0 20.478 20.478">
  <g id="Group_339" data-name="Group 339" transform="translate(0 0)">
    <g id="Group_338" data-name="Group 338">
      <path id="Path_151" data-name="Path 151" d="M75.811,83.1a.8.8,0,0,0,.811-.811V76.723h5.583a.8.8,0,0,0,.811-.811.816.816,0,0,0-.811-.811H75.811a.816.816,0,0,0-.811.811v6.395A.813.813,0,0,0,75.811,83.1Z" transform="translate(-75 -75.081)" fill="#06283a"/>
      <path id="Path_152" data-name="Path 152" d="M146.706,75h-6.395a.811.811,0,1,0,0,1.623h5.583v5.583a.811.811,0,0,0,1.623,0V75.811A.816.816,0,0,0,146.706,75Z" transform="translate(-127.039 -75)" fill="#06283a"/>
      <path id="Path_153" data-name="Path 153" d="M94.747,100.773a.816.816,0,0,0-.811.811v3.265H90.729v-1.893a5.418,5.418,0,0,0-2.84-4.752,3.781,3.781,0,0,0,1.275-2.859,3.844,3.844,0,1,0-7.689,0A3.781,3.781,0,0,0,82.75,98.2a5.381,5.381,0,0,0-2.84,4.752v1.893H76.723v-3.265a.811.811,0,1,0-1.623,0v6.395a.816.816,0,0,0,.811.811h6.395a.816.816,0,0,0,.811-.811.8.8,0,0,0-.811-.811H76.723V105.8H93.936v1.372H88.353a.811.811,0,1,0,0,1.623h6.395a.816.816,0,0,0,.811-.811v-6.395A.816.816,0,0,0,94.747,100.773Zm-9.428-7.65A2.222,2.222,0,1,1,83.1,95.344,2.234,2.234,0,0,1,85.32,93.123Zm-3.787,11.649v-1.816a3.787,3.787,0,1,1,7.573,0v1.893H81.533Z" transform="translate(-75.081 -88.312)" fill="#06283a"/>
    </g>
  </g>
</svg>
