<svg xmlns="http://www.w3.org/2000/svg" width="16.492" height="22.335" viewBox="0 0 16.492 22.335">
  <g id="noun_shareholder_4244455" transform="translate(-3.872 0.198)">
    <path id="Path_158" data-name="Path 158" d="M8.732,7.679H15.74A1.08,1.08,0,0,1,16.516,8l4.9,4.9a.734.734,0,0,0,.52.216.531.531,0,0,0,.054,0,.717.717,0,0,0,.524-.287A8.038,8.038,0,0,0,24.05,7.283h0A8.089,8.089,0,0,0,8.008,6.85a.718.718,0,0,0,.168.573A.736.736,0,0,0,8.732,7.679ZM16.637.756A7.36,7.36,0,0,1,23.323,7.35h0a7.3,7.3,0,0,1-1.394,5.032L17.035,7.488a1.806,1.806,0,0,0-1.295-.54l-7.008.01a7.387,7.387,0,0,1,7.905-6.2Z" transform="translate(-3.925 0)" fill="#fbae17" stroke="#fbaf17" stroke-width="0.4"/>
    <path id="Path_159" data-name="Path 159" d="M10.557,28.518V30.14a3.279,3.279,0,0,0,.975,2.319c.551.558.93.948,1.183,1.212a1.462,1.462,0,0,1,.4,1.01v.749a1.1,1.1,0,0,0,1.1,1.1H18.6a1.1,1.1,0,0,0,1.1-1.1V33.968a5.367,5.367,0,0,1,.358-1.782,5.325,5.325,0,0,0,.373-1.921v-.889c.128-.083.256-.172.381-.265a.738.738,0,0,0,.3-.538A.726.726,0,0,0,20.9,28L16.32,23.428A1.451,1.451,0,0,0,15.287,23H8.729a.736.736,0,0,0-.558.256A.716.716,0,0,0,8,23.828,8.075,8.075,0,0,0,10.557,28.518Zm9.14,1.747a4.591,4.591,0,0,1-.324,1.657,6.137,6.137,0,0,0-.407,2.046V35.43a.366.366,0,0,1-.366.366H14.213a.366.366,0,0,1-.366-.366v-.749a2.194,2.194,0,0,0-.6-1.514c-.256-.268-.638-.66-1.193-1.223a2.555,2.555,0,0,1-.764-1.8V26.107a.556.556,0,0,1,.515-.548.518.518,0,0,1,.383.146.634.634,0,0,1,.2.461v3.169a.731.731,0,0,0,.435.672A8.153,8.153,0,0,0,19.7,29.8Zm-4.41-6.533a.726.726,0,0,1,.517.214l4.57,4.578c-.164.121-.331.234-.5.337l-.011.007a7.387,7.387,0,0,1-6.749.469V26.166a1.368,1.368,0,0,0-.429-.992,1.239,1.239,0,0,0-.854-.346c-.024,0-.049,0-.073,0a1.28,1.28,0,0,0-1.2,1.277v1.371a7.205,7.205,0,0,1-1.828-3.748Z" transform="translate(-3.923 -14.59)" fill="#fbae17" stroke="#fbaf17" stroke-width="0.4"/>
    <path id="Path_160" data-name="Path 160" d="M19.762,4.366A.366.366,0,0,0,19.4,4a6.692,6.692,0,0,0-6.072,3.869.366.366,0,1,0,.664.306A5.959,5.959,0,0,1,19.4,4.731a.366.366,0,0,0,.366-.366Z" transform="translate(-7.279 -2.536)" fill="#fbae17" stroke="#fbaf17" stroke-width="0.4"/>
  </g>
</svg>
