<svg xmlns="http://www.w3.org/2000/svg" width="15.899" height="21.526" viewBox="0 0 15.899 21.526">
  <g id="noun_shareholder_4244455" transform="translate(-3.872 0.198)">
    <path id="Path_158" data-name="Path 158" d="M8.7,7.4h6.75a1.04,1.04,0,0,1,.748.312l4.715,4.715a.707.707,0,0,0,.5.208.512.512,0,0,0,.052,0,.69.69,0,0,0,.5-.276,7.741,7.741,0,0,0,1.483-5.339h0A7.791,7.791,0,0,0,8.008,6.6a.692.692,0,0,0,.162.552A.708.708,0,0,0,8.7,7.4ZM16.318.728a7.089,7.089,0,0,1,6.44,6.351h0a7.029,7.029,0,0,1-1.342,4.847L16.7,7.212a1.739,1.739,0,0,0-1.247-.52L8.7,6.7A7.115,7.115,0,0,1,16.318.728Z" transform="translate(-3.926)" fill="#06283a" stroke="#06283a" stroke-width="0.4"/>
    <path id="Path_159" data-name="Path 159" d="M10.462,28.314v1.562A3.158,3.158,0,0,0,11.4,32.11c.53.537.9.913,1.139,1.168a1.408,1.408,0,0,1,.386.973v.722a1.056,1.056,0,0,0,1.056,1.056h4.225a1.056,1.056,0,0,0,1.056-1.056V33.563a5.169,5.169,0,0,1,.345-1.716A5.129,5.129,0,0,0,19.969,30v-.856c.124-.08.246-.166.367-.255a.711.711,0,0,0,.287-.518.7.7,0,0,0-.2-.548l-4.407-4.407a1.4,1.4,0,0,0-1-.412H8.7a.709.709,0,0,0-.537.246A.689.689,0,0,0,8,23.8,7.777,7.777,0,0,0,10.462,28.314ZM19.265,30a4.422,4.422,0,0,1-.312,1.6,5.91,5.91,0,0,0-.392,1.97v1.408a.352.352,0,0,1-.352.352H13.983a.352.352,0,0,1-.352-.352V34.25a2.113,2.113,0,0,0-.58-1.458c-.246-.258-.615-.636-1.149-1.177a2.461,2.461,0,0,1-.736-1.738V25.993a.536.536,0,0,1,.5-.528.5.5,0,0,1,.369.141.61.61,0,0,1,.192.444V29.1a.7.7,0,0,0,.419.647,7.852,7.852,0,0,0,6.623-.2ZM15.018,23.7a.7.7,0,0,1,.5.206l4.4,4.409c-.158.117-.319.225-.48.324l-.01.006a7.115,7.115,0,0,1-6.5.452V26.049a1.317,1.317,0,0,0-.413-.955,1.193,1.193,0,0,0-.823-.333c-.023,0-.047,0-.07,0a1.232,1.232,0,0,0-1.158,1.23v1.321A6.94,6.94,0,0,1,8.7,23.7Z" transform="translate(-3.923 -14.9)" fill="#06283a" stroke="#06283a" stroke-width="0.4"/>
    <path id="Path_160" data-name="Path 160" d="M19.523,4.352A.352.352,0,0,0,19.171,4a6.446,6.446,0,0,0-5.848,3.726.352.352,0,1,0,.639.294A5.739,5.739,0,0,1,19.171,4.7a.352.352,0,0,0,.352-.352Z" transform="translate(-7.35 -2.59)" fill="#06283a" stroke="#06283a" stroke-width="0.4"/>
  </g>
</svg>
