<svg xmlns="http://www.w3.org/2000/svg" width="19.879" height="21.79" viewBox="0 0 19.879 21.79">
  <g id="noun_Bank_3543138" transform="translate(-9 -5.742)">
    <path id="Path_154" data-name="Path 154" d="M26.118,14.277H10.254v-.79H26.118Zm1.254-2.044H12.234l5.845-4.9,4.82,3.486.508.368.735-1.017L23.635,9.8,18.022,5.742,10.794,11.8l-.481.4.022.027H9v3.3H27.373Z" fill="#06283a"/>
    <path id="Path_155" data-name="Path 155" d="M27.625,41.355H18.633v-4.13h8.991ZM16.1,39.876H10.254V38.627h7.125v3.982h11.5V35.971H25.8V31.652H24.543v4.319h-.715V31.652H22.574v4.319H19.8V31.652H18.545v4.319h-.715V31.652H16.575v5.72H13.818v-5.72H12.564v5.72h-.715v-5.72H10.594v5.72H9V41.13h7.1V39.876Z" transform="translate(0 -15.077)" fill="#06283a"/>
  </g>
</svg>
