<svg xmlns="http://www.w3.org/2000/svg" width="18" height="18" viewBox="0 0 18 18"><defs><style>.a{fill:#4caf50;}.b{fill:#fff;}</style></defs><g transform="translate(-11.65 -11.65)"><path class="a" d="M20.65,29.65a9,9,0,1,1,9-9A9.01,9.01,0,0,1,20.65,29.65Z"/><path class="b" d="M18.122,22.354a1.35,1.35,0,0,1-.874-.308l-2.885-2.451a.943.943,0,0,1,0-1.486,1.4,1.4,0,0,1,1.749,0l1.947,1.653,4.488-4.4a1.394,1.394,0,0,1,1.744-.106.945.945,0,0,1,.125,1.482L19.058,21.99a1.333,1.333,0,0,1-.89.361A.265.265,0,0,1,18.122,22.354Z" transform="translate(0.942 2.179)"/></g></svg>