<svg xmlns="http://www.w3.org/2000/svg" width="16.502" height="22.003" viewBox="0 0 16.502 22.003"><defs><style>.a{fill:#3c5670;}</style></defs><g transform="translate(1.751 8.251)"><path class="a" d="M133.323,192.21a.69.69,0,0,0-.974,0l-2.264,2.265-.888-.89a.687.687,0,0,0-.972.972l1.375,1.375a.681.681,0,0,0,.485.2.691.691,0,0,0,.487-.2l2.75-2.75A.688.688,0,0,0,133.323,192.21Z" transform="translate(-128.024 -192.008)"/></g><g transform="translate(1.751 13.752)"><path class="a" d="M133.323,320.21a.69.69,0,0,0-.974,0l-2.264,2.265-.888-.888a.687.687,0,0,0-.972.972l1.375,1.375a.689.689,0,0,0,.972,0l2.75-2.75A.688.688,0,0,0,133.323,320.21Z" transform="translate(-128.024 -320.008)"/></g><g transform="translate(8.626 9.626)"><g transform="translate(0)"><path class="a" d="M291.438,224h-2.75a.688.688,0,1,0,0,1.375h2.75a.688.688,0,0,0,0-1.375Z" transform="translate(-288 -224)"/></g></g><g transform="translate(8.626 15.127)"><g transform="translate(0)"><path class="a" d="M291.438,352h-2.75a.688.688,0,1,0,0,1.375h2.75a.688.688,0,1,0,0-1.375Z" transform="translate(-288 -352)"/></g></g><g transform="translate(0)"><path class="a" d="M79.127,2.75h-2.75V2.063a.688.688,0,0,0-.688-.688H74.2a2.064,2.064,0,0,0-3.892,0H68.813a.688.688,0,0,0-.688.688V2.75h-2.75A1.377,1.377,0,0,0,64,4.126v16.5A1.377,1.377,0,0,0,65.375,22H79.127A1.377,1.377,0,0,0,80.5,20.628V4.126A1.377,1.377,0,0,0,79.127,2.75Zm-9.626,0h1.375a.688.688,0,0,0,.688-.688.688.688,0,1,1,1.375,0,.688.688,0,0,0,.688.688H75V4.126H69.5Zm9.626,17.877H65.375V4.126h2.75v.688a.688.688,0,0,0,.688.688h6.876a.688.688,0,0,0,.688-.688V4.126h2.75Z" transform="translate(-64)"/></g><g transform="translate(0)"><path class="a" d="M79.127,2.75h-2.75V2.063a.688.688,0,0,0-.688-.688H74.2a2.064,2.064,0,0,0-3.892,0H68.813a.688.688,0,0,0-.688.688V2.75h-2.75A1.377,1.377,0,0,0,64,4.126v16.5A1.377,1.377,0,0,0,65.375,22H79.127A1.377,1.377,0,0,0,80.5,20.628V4.126A1.377,1.377,0,0,0,79.127,2.75Zm-9.626,0h1.375a.688.688,0,0,0,.688-.688.688.688,0,1,1,1.375,0,.688.688,0,0,0,.688.688H75V4.126H69.5Zm9.626,17.877H65.375V4.126h2.75v.688a.688.688,0,0,0,.688.688h6.876a.688.688,0,0,0,.688-.688V4.126h2.75Z" transform="translate(-64)"/></g></svg>