<svg xmlns="http://www.w3.org/2000/svg" width="18.07" height="20.652" viewBox="0 0 18.07 20.652"><defs><style>.a{fill:#535353;}</style></defs><path class="a" d="M9.035,20.652a2.581,2.581,0,0,0,2.58-2.581H6.455A2.581,2.581,0,0,0,9.035,20.652Zm8.688-6.039c-.779-.837-2.237-2.1-2.237-6.223a6.37,6.37,0,0,0-5.161-6.258V1.291a1.29,1.29,0,1,0-2.58,0v.841A6.37,6.37,0,0,0,2.585,8.39c0,4.126-1.458,5.386-2.237,6.223A1.26,1.26,0,0,0,0,15.489,1.292,1.292,0,0,0,1.295,16.78H16.776a1.292,1.292,0,0,0,1.295-1.291A1.26,1.26,0,0,0,17.723,14.613Z"/></svg>