<svg xmlns="http://www.w3.org/2000/svg" width="63.55" height="57.246" viewBox="0 0 63.55 57.246"><defs><style>.a{fill:#d0e2eb;opacity:0.4;}.b{fill:#06283a;}</style></defs><g transform="translate(-300.45 -2766.377)"><ellipse class="a" cx="25" cy="25.5" rx="25" ry="25.5" transform="translate(314 2766.377)"/><g transform="translate(300.45 2783.377)"><g transform="translate(0)"><path class="b" d="M52.31,57.732H10.521a3.929,3.929,0,0,0-4.075,3.755v1.929H4.075A3.929,3.929,0,0,0,0,67.172V94.223a3.929,3.929,0,0,0,4.075,3.755H45.863a3.929,3.929,0,0,0,4.075-3.755V92.294H52.31a3.929,3.929,0,0,0,4.075-3.755V61.487a3.929,3.929,0,0,0-4.075-3.755ZM47.735,94.223a1.805,1.805,0,0,1-1.872,1.725H4.075A1.805,1.805,0,0,1,2.2,94.223V67.172a1.805,1.805,0,0,1,1.872-1.725H45.863a1.805,1.805,0,0,1,1.872,1.725Zm6.447-5.684a1.805,1.805,0,0,1-1.872,1.725H49.938V67.172a3.929,3.929,0,0,0-4.075-3.755H8.649V61.487a1.805,1.805,0,0,1,1.872-1.725H52.31a1.805,1.805,0,0,1,1.872,1.725Z" transform="translate(0 -57.732)"/><path class="b" d="M50.475,185.493c-5.982,0-10.849,4.485-10.849,10a9.919,9.919,0,0,0,5.431,8.664h0a11.665,11.665,0,0,0,10.835,0,9.919,9.919,0,0,0,5.431-8.664C61.323,189.978,56.456,185.493,50.475,185.493Zm3.766,17.173a9.331,9.331,0,0,1-7.532,0v-1.294a.221.221,0,0,1,.229-.211h7.074a.221.221,0,0,1,.229.211Zm2.2-1.409a2.357,2.357,0,0,0-2.429-2.126H46.938a2.357,2.357,0,0,0-2.429,2.126,7.712,7.712,0,0,1-2.681-5.766c0-4.394,3.879-7.968,8.646-7.968s8.646,3.575,8.646,7.968A7.711,7.711,0,0,1,56.44,201.257Z" transform="translate(-35.262 -172.526)"/><path class="b" d="M96.986,218.646a4.709,4.709,0,1,0,5.092,4.693A4.911,4.911,0,0,0,96.986,218.646Zm0,7.357a2.672,2.672,0,1,1,2.89-2.663A2.787,2.787,0,0,1,96.986,226Z" transform="translate(-81.774 -202.314)"/><g transform="translate(29.203 14.441)"><g transform="translate(14.17 0.003)"><path class="b" d="M394.952,202.077a1.109,1.109,0,0,1-1.036-.673.974.974,0,0,1,.337-1.126,1.19,1.19,0,0,1,1.28-.077.989.989,0,0,1,.493,1.083A1.1,1.1,0,0,1,394.952,202.077Z" transform="translate(-393.854 -200.051)"/></g><path class="b" d="M275.755,202.05H266.28a1.018,1.018,0,1,1,0-2.03h9.475a1.018,1.018,0,1,1,0,2.03Z" transform="translate(-265.179 -200.02)"/><g transform="translate(0 5.006)"><path class="b" d="M280.448,251.372H266.28a1.018,1.018,0,1,1,0-2.03h14.168a1.018,1.018,0,1,1,0,2.03Z" transform="translate(-265.179 -249.342)"/></g><g transform="translate(0 10.012)"><path class="b" d="M280.448,300.694H266.28a1.018,1.018,0,1,1,0-2.03h14.168a1.018,1.018,0,1,1,0,2.03Z" transform="translate(-265.179 -298.664)"/></g><g transform="translate(6.9 15.018)"><path class="b" d="M336.2,350.015h-7.268a1.018,1.018,0,1,1,0-2.03H336.2a1.018,1.018,0,1,1,0,2.03Z" transform="translate(-327.833 -347.985)"/></g></g></g></g></g></svg>