<svg xmlns="http://www.w3.org/2000/svg" width="44" height="43" viewBox="0 0 44 43"><defs><style>.a{fill:#ffa51e;}.b{fill:#fff;stroke:#fff;stroke-width:0.5px;}</style></defs><g transform="translate(-1100 -182)"><rect class="a" width="44" height="43" rx="4" transform="translate(1100 182)"/><g transform="translate(1072.537 192.181)"><g transform="translate(40.097)"><g transform="translate(0)"><path class="b" d="M59.645,3.258H57.571V1.185A1.188,1.188,0,0,0,56.387,0H41.282A1.188,1.188,0,0,0,40.1,1.185V20.14a1.188,1.188,0,0,0,1.185,1.185h2.073V23.4a1.188,1.188,0,0,0,1.185,1.185h10.07a3.457,3.457,0,0,0,2.047-.812l3.309-3.115a3.146,3.146,0,0,0,.863-2V4.443A1.188,1.188,0,0,0,59.645,3.258ZM43.355,4.443V20.436H41.282a.3.3,0,0,1-.3-.3V1.185a.3.3,0,0,1,.3-.3H56.387a.3.3,0,0,1,.3.3V3.258H44.54A1.188,1.188,0,0,0,43.355,4.443Zm16,15.566-3.309,3.115a1.572,1.572,0,0,1-.254.186V20.584a.743.743,0,0,1,.74-.74H59.5A1.244,1.244,0,0,1,59.357,20.009Zm.583-1.35a1.382,1.382,0,0,1-.04.3H56.534a1.632,1.632,0,0,0-1.629,1.629v3.074a1.549,1.549,0,0,1-.3.036H44.54a.3.3,0,0,1-.3-.3V4.443a.3.3,0,0,1,.3-.3h15.1a.3.3,0,0,1,.3.3Z" transform="translate(-40.097)"/></g></g><g transform="translate(47.354 7.404)"><path class="b" d="M200.268,154.216h-8.589a.444.444,0,1,0,0,.889h8.589a.444.444,0,1,0,0-.889Z" transform="translate(-191.235 -154.216)"/></g><g transform="translate(47.354 13.328)"><path class="b" d="M200.268,277.59h-8.589a.444.444,0,1,0,0,.889h8.589a.444.444,0,1,0,0-.889Z" transform="translate(-191.235 -277.59)"/></g><g transform="translate(47.354 16.29)"><g transform="translate(0)"><path class="b" d="M196.419,339.277H191.68a.444.444,0,0,0,0,.889h4.739a.444.444,0,0,0,0-.889Z" transform="translate(-191.236 -339.277)"/></g></g><g transform="translate(47.354 10.366)"><path class="b" d="M200.268,215.9h-8.589a.444.444,0,1,0,0,.889h8.589a.444.444,0,1,0,0-.889Z" transform="translate(-191.235 -215.903)"/></g></g></g></svg>