<svg xmlns="http://www.w3.org/2000/svg" width="21.335" height="21.341" viewBox="0 0 21.335 21.341"><defs><style>.a{fill:#06283a;}</style></defs><path class="a" d="M24.074,15.168a2.745,2.745,0,0,1,1.761-2.561,10.882,10.882,0,0,0-1.317-3.173,2.782,2.782,0,0,1-1.117.239A2.739,2.739,0,0,1,20.9,5.817,10.85,10.85,0,0,0,17.729,4.5a2.743,2.743,0,0,1-5.123,0A10.882,10.882,0,0,0,9.434,5.817,2.739,2.739,0,0,1,6.928,9.673a2.692,2.692,0,0,1-1.117-.239A11.123,11.123,0,0,0,4.5,12.612a2.745,2.745,0,0,1,.006,5.123,10.882,10.882,0,0,0,1.317,3.173,2.741,2.741,0,0,1,3.617,3.617,10.946,10.946,0,0,0,3.173,1.317,2.738,2.738,0,0,1,5.112,0A10.882,10.882,0,0,0,20.9,24.524a2.743,2.743,0,0,1,3.617-3.617,10.946,10.946,0,0,0,1.317-3.173A2.759,2.759,0,0,1,24.074,15.168Zm-8.856,4.439a4.445,4.445,0,1,1,4.445-4.445A4.444,4.444,0,0,1,15.218,19.607Z" transform="translate(-4.5 -4.5)"/></svg>