<svg xmlns="http://www.w3.org/2000/svg" width="48.084" height="55" viewBox="0 0 48.084 55"><defs><style>.a{fill:#ecf3f7;opacity:0.4;}.b{fill:#06283a;}</style></defs><g transform="translate(-855.916 -2765)"><ellipse class="a" cx="24" cy="23.5" rx="24" ry="23.5" transform="translate(856 2765)"/><g transform="translate(855.917 2776.14)"><g transform="translate(0 0.002)"><g transform="translate(0)"><path class="b" d="M32.464,18.875a.742.742,0,0,0,.742-.742V7.671a.741.741,0,0,0-.218-.525L26.077.243a.742.742,0,0,0-.524-.217H.761A.742.742,0,0,0,.019.768V43.142a.742.742,0,0,0,.742.742h31.7a.742.742,0,0,0,.742-.742V22.956a.742.742,0,0,0-1.483,0V42.4H1.5V1.509H25.246l6.476,6.469V18.133A.742.742,0,0,0,32.464,18.875Z" transform="translate(-0.019 -0.026)"/></g></g><g transform="translate(24.793 0)"><g transform="translate(0 0)"><path class="b" d="M297.614,7.124,290.707.217a.742.742,0,0,0-1.266.524V7.648a.742.742,0,0,0,.742.742h6.907a.742.742,0,0,0,.524-1.266Zm-6.69-.217V2.531L295.3,6.907Z" transform="translate(-289.441 0.001)"/></g></g><g transform="translate(3.977 4.815)"><path class="b" d="M53.424,56.212H47.183a.742.742,0,0,0,0,1.483h6.241a.742.742,0,1,0,0-1.483Z" transform="translate(-46.441 -56.212)"/></g><g transform="translate(21.81 35.54)"><path class="b" d="M262.156,414.876h-6.788a.741.741,0,1,0,0,1.483h6.788a.741.741,0,1,0,0-1.483Z" transform="translate(-254.626 -414.876)"/></g><g transform="translate(24.113 38.597)"><path class="b" d="M286.729,450.561h-4.486a.742.742,0,1,0,0,1.483h4.486a.742.742,0,0,0,0-1.483Z" transform="translate(-281.502 -450.561)"/></g><g transform="translate(10.678 12.571)"><path class="b" d="M135.746,146.753H125.415a.742.742,0,0,0,0,1.483h10.331a.742.742,0,0,0,0-1.483Z" transform="translate(-124.674 -146.753)"/></g><g transform="translate(4.123 16.366)"><path class="b" d="M72.33,191.047H48.887a.742.742,0,0,0,0,1.483H72.33a.742.742,0,0,0,0-1.483Z" transform="translate(-48.146 -191.047)"/></g><g transform="translate(4.123 19.485)"><path class="b" d="M72.33,227.455H48.887a.742.742,0,0,0,0,1.483H72.33a.742.742,0,0,0,0-1.483Z" transform="translate(-48.146 -227.455)"/></g><g transform="translate(4.123 22.604)"><path class="b" d="M66.767,263.871H48.887a.741.741,0,1,0,0,1.483h17.88a.741.741,0,1,0,0-1.483Z" transform="translate(-48.146 -263.871)"/></g><g transform="translate(4.123 25.724)"><path class="b" d="M67.764,300.289H48.887a.741.741,0,1,0,0,1.483H67.764a.741.741,0,1,0,0-1.483Z" transform="translate(-48.146 -300.289)"/></g><g transform="translate(4.123 28.843)"><path class="b" d="M65.774,336.706H48.887a.741.741,0,1,0,0,1.483H65.774a.741.741,0,1,0,0-1.483Z" transform="translate(-48.146 -336.706)"/></g><g transform="translate(4.123 31.963)"><path class="b" d="M58.327,373.123h-9.44a.742.742,0,0,0,0,1.483h9.44a.742.742,0,1,0,0-1.483Z" transform="translate(-48.146 -373.123)"/></g><g transform="translate(3.977 7.977)"><path class="b" d="M56.385,93.121h-9.2a.742.742,0,1,0,0,1.483h9.2a.742.742,0,0,0,0-1.483Z" transform="translate(-46.441 -93.121)"/></g><g transform="translate(18.034 28.879)"><path class="b" d="M216.33,338.541l-1.2-1.2a.742.742,0,0,0-.885-.124l-2.342,1.3a.742.742,0,0,0-.349.432l-.98,3.222a.742.742,0,0,0,.925.925l3.222-.98a.742.742,0,0,0,.432-.349l1.3-2.342A.742.742,0,0,0,216.33,338.541ZM214,340.785l-1.606.489.488-1.606,1.591-.884.411.411Z" transform="translate(-210.54 -337.122)"/></g><g transform="translate(20.94 9.064)"><path class="b" d="M267.153,107.894l-.03-.031-1.8-1.8-.032-.03a.921.921,0,0,0-1.225,0l-.021.019-8.591,8.26-7.959,7.658a.743.743,0,0,0-.06.066l-2.8,3.436a.741.741,0,0,0,.05.993l2.034,2.034a.742.742,0,0,0,.993.05l3.436-2.8a.778.778,0,0,0,.065-.06l5.293-5.5,10.624-11.048.02-.022A.921.921,0,0,0,267.153,107.894ZM255.441,119.16l-5.262,5.469-2.882,2.352L246.21,125.9l2.352-2.883,7.926-7.627,8.188-7.872,1,1Z" transform="translate(-244.47 -105.805)"/></g><g transform="translate(33.833 15.323)"><path class="b" d="M398.515,181.376l-2.282-2.282a.741.741,0,0,0-1.049,1.049l2.282,2.282a.741.741,0,1,0,1.049-1.049Z" transform="translate(-394.967 -178.877)"/></g></g></g></svg>