<svg xmlns="http://www.w3.org/2000/svg" width="17.622" height="11.748" viewBox="0 0 17.622 11.748"><defs><style>.a{fill:#06283a;}</style></defs><path class="a" d="M17.515,9.927A9.813,9.813,0,0,0,8.811,4.5a9.814,9.814,0,0,0-8.7,5.428.99.99,0,0,0,0,.893,9.813,9.813,0,0,0,8.7,5.427,9.814,9.814,0,0,0,8.7-5.428A.99.99,0,0,0,17.515,9.927Zm-8.7,4.852a4.405,4.405,0,1,1,4.405-4.405A4.405,4.405,0,0,1,8.811,14.779Zm0-7.342a2.916,2.916,0,0,0-.774.116A1.464,1.464,0,0,1,5.99,9.6,2.93,2.93,0,1,0,8.811,7.437Z" transform="translate(0 -4.5)"/></svg>