<svg width="20" height="23" viewBox="0 0 20 23" fill="none" xmlns="http://www.w3.org/2000/svg">
<path d="M17.867 0H1.985C1.42528 0.040304 0.904022 0.299659 0.534291 0.721807C0.164561 1.14396 -0.0238243 1.69485 0.00999999 2.255L0 22.548L3.97 18.038H17.87C18.4308 17.9984 18.9535 17.7396 19.325 17.3176C19.6965 16.8956 19.8869 16.3443 19.855 15.783V2.255C19.8869 1.6932 19.6961 1.14147 19.3239 0.719378C18.9518 0.297283 18.4284 0.0388209 17.867 0ZM3.97 13.529V10.744L10.8 2.988C10.8424 2.93612 10.8958 2.89432 10.9563 2.86561C11.0168 2.83691 11.083 2.82201 11.15 2.82201C11.217 2.82201 11.2832 2.83691 11.3437 2.86561C11.4042 2.89432 11.4576 2.93612 11.5 2.988L13.257 4.988C13.353 5.09916 13.4058 5.24113 13.4058 5.388C13.4058 5.53487 13.353 5.67684 13.257 5.788L6.422 13.529H3.97ZM15.881 13.529H8.437L10.422 11.274H15.881V13.529Z" fill="white"/>
</svg>
