<svg xmlns="http://www.w3.org/2000/svg" width="46.622" height="46.96" viewBox="0 0 46.622 46.96"><defs><style>.a{fill:#00a750;}.b{fill:#e6ffea;}.c{fill:#298235;}.d{fill:#143a1a;}.e{fill:#fff;}</style></defs><g transform="translate(0)"><path class="a" d="M70.84,47.48l1.45-2.83-2.081-2.4.729-3.095-2.6-1.832L68.3,34.14l-2.962-1.157L64.549,29.9,61.4,29.487l-1.5-2.8-3.16.349L54.6,24.677l-2.983,1.1L48.979,24l-2.637,1.777-2.983-1.1-2.134,2.357-3.16-.348-1.5,2.8-3.152.418-.793,3.079L29.654,34.14l-.036,3.179-2.6,1.832.729,3.095-2.081,2.4,1.45,2.83-1.45,2.83,2.081,2.4-.729,3.095,2.6,1.832.036,3.179,2.962,1.157.793,3.079,3.152.418,1.5,2.8,3.16-.349,2.134,2.357,2.983-1.1,2.637,1.777,2.637-1.777,2.983,1.1,2.134-2.357,3.16.348,1.5-2.8,3.152-.418.793-3.079L68.3,60.819l.036-3.179,2.6-1.832-.729-3.095,2.081-2.4Z" transform="translate(-25.668 -24)"/><ellipse class="b" cx="18.622" cy="18.622" rx="18.622" ry="18.622" transform="translate(4.689 4.858)"/><path class="c" d="M112.166,128.386a16.448,16.448,0,0,1-1.691-.09l.17-1.61a14.788,14.788,0,0,0,1.524.081Zm1.691-.084-.164-1.611a14.64,14.64,0,0,0,1.507-.234l.332,1.585a16.271,16.271,0,0,1-1.674.26Zm-5.056-.271a16.19,16.19,0,0,1-1.637-.44l.5-1.539a14.523,14.523,0,0,0,1.472.4Zm8.369-.424-.5-1.541a14.481,14.481,0,0,0,1.424-.544l.657,1.48a16.113,16.113,0,0,1-1.584.605Zm-11.588-.627a16.217,16.217,0,0,1-1.508-.773l.813-1.4a14.564,14.564,0,0,0,1.357.7Zm14.683-.747-.809-1.4a14.654,14.654,0,0,0,1.28-.83l.95,1.311a16.278,16.278,0,0,1-1.422.923Zm-17.61-.952a16.319,16.319,0,0,1-1.315-1.069l1.086-1.2a14.7,14.7,0,0,0,1.184.963Zm20.35-1.034-1.082-1.2a14.71,14.71,0,0,0,1.081-1.077l1.2,1.086A16.33,16.33,0,0,1,123.006,124.247Zm-22.861-1.234A16.273,16.273,0,0,1,99.08,121.7l1.311-.951a14.708,14.708,0,0,0,.959,1.186Zm25.131-1.276-1.308-.955a14.665,14.665,0,0,0,.834-1.277l1.4.814A16.3,16.3,0,0,1,125.276,121.737Zm-27.119-1.463a16.24,16.24,0,0,1-.769-1.511l1.48-.658a14.609,14.609,0,0,0,.692,1.359Zm28.819-1.462-1.478-.662a14.549,14.549,0,0,0,.55-1.421l1.539.5a16.128,16.128,0,0,1-.611,1.581Zm-30.193-1.632a16.171,16.171,0,0,1-.436-1.639l1.585-.333a14.5,14.5,0,0,0,.392,1.474Zm31.246-1.586-1.584-.339a14.6,14.6,0,0,0,.24-1.506l1.61.171A16.221,16.221,0,0,1,128.028,115.594Zm-31.943-1.727A16.411,16.411,0,0,1,96,112.193v-.017h1.619v.017A14.8,14.8,0,0,0,97.7,113.7Zm32.3-1.639h-1.619v-.034a14.844,14.844,0,0,0-.078-1.522l1.61-.169a16.448,16.448,0,0,1,.087,1.691ZM97.7,110.653l-1.61-.169a16.223,16.223,0,0,1,.265-1.674l1.584.337A14.587,14.587,0,0,0,97.7,110.653Zm28.752-1.49a14.513,14.513,0,0,0-.393-1.474l1.54-.5a16.159,16.159,0,0,1,.438,1.638Zm-28.118-1.488-1.54-.5a16.179,16.179,0,0,1,.609-1.582l1.478.661A14.545,14.545,0,0,0,98.333,107.675Zm27.179-1.408a14.573,14.573,0,0,0-.693-1.358l1.4-.811a16.184,16.184,0,0,1,.771,1.51Zm-25.936-1.371-1.4-.812a16.309,16.309,0,0,1,.925-1.419l1.309.954a14.64,14.64,0,0,0-.833,1.278Zm24.411-1.266a14.722,14.722,0,0,0-.961-1.186l1.2-1.083a16.387,16.387,0,0,1,1.067,1.316Zm-22.616-1.2-1.2-1.085a16.376,16.376,0,0,1,1.2-1.2l1.083,1.2A14.764,14.764,0,0,0,101.37,102.433Zm20.577-1.069a14.66,14.66,0,0,0-1.184-.961l.953-1.309a16.308,16.308,0,0,1,1.316,1.067Zm-18.312-.969-.952-1.31a16.315,16.315,0,0,1,1.421-.923l.81,1.4a14.608,14.608,0,0,0-1.279.832Zm15.849-.824a14.611,14.611,0,0,0-1.358-.694l.66-1.479a16.232,16.232,0,0,1,1.509.771Zm-13.211-.7-.659-1.479a16.124,16.124,0,0,1,1.583-.607l.5,1.54A14.548,14.548,0,0,0,106.273,98.871Zm10.43-.541a14.572,14.572,0,0,0-1.473-.395l.336-1.584a16.223,16.223,0,0,1,1.637.439Zm-7.533-.4-.334-1.585a16.263,16.263,0,0,1,1.674-.262l.166,1.611a14.536,14.536,0,0,0-1.506.236Zm4.554-.234a14.818,14.818,0,0,0-1.524-.079V96a16.445,16.445,0,0,1,1.691.088Z" transform="translate(-88.882 -88.713)"/><g transform="translate(11.167 11.335)"><ellipse class="d" cx="12.145" cy="12.145" rx="12.145" ry="12.145"/><path class="d" d="M158.464,215.151a12.146,12.146,0,0,0,20.753-12.472A29.587,29.587,0,0,1,158.464,215.151Z" transform="translate(-156.191 -195.931)"/></g><path class="e" d="M180.858,220.145a1.614,1.614,0,0,1-1.145-.474l-3.239-3.239a1.619,1.619,0,1,1,2.29-2.29l2.094,2.094,7.761-7.761a1.619,1.619,0,1,1,2.29,2.29L182,219.67A1.614,1.614,0,0,1,180.858,220.145Z" transform="translate(-160.786 -189.378)"/></g></svg>