<svg xmlns="http://www.w3.org/2000/svg" width="1632.961" height="918.005" viewBox="0 0 1632.961 918.005">
  <g id="Group_279" data-name="Group 279" transform="translate(154.965 64.004)">
    <g id="Group_242" data-name="Group 242" transform="translate(-738)">
      <rect id="Rectangle_6" data-name="Rectangle 6" width="1366" height="768" transform="translate(738)" fill="#0c2130"/>
    </g>
    <g id="Polygon_2" data-name="Polygon 2" transform="translate(389.623 324.482) rotate(40)" fill="#fff" opacity="0.03">
      <path d="M 169.3055267333984 139.4731597900391 L 0.8891204595565796 139.4731597900391 L 85.09732055664063 0.9624805450439453 L 169.3055267333984 139.4731597900391 Z" stroke="none"/>
      <path d="M 85.09732055664063 1.924972534179688 L 1.778244018554688 138.9731597900391 L 168.4163970947266 138.9731597900391 L 85.09732055664063 1.924972534179688 M 85.09732055664063 0 L 170.1946411132813 139.9731597900391 L 0 139.9731597900391 L 85.09732055664063 0 Z" stroke="none" fill="#707070"/>
    </g>
    <g id="Group_277" data-name="Group 277">
      <g id="Polygon_1" data-name="Polygon 1" transform="translate(1146.066 52.069) rotate(-43)" fill="#fff" opacity="0.03">
        <path d="M 169.3055267333984 139.4731597900391 L 0.8891204595565796 139.4731597900391 L 85.09732055664063 0.9624805450439453 L 169.3055267333984 139.4731597900391 Z" stroke="none"/>
        <path d="M 85.09732055664063 1.924972534179688 L 1.778244018554688 138.9731597900391 L 168.4163970947266 138.9731597900391 L 85.09732055664063 1.924972534179688 M 85.09732055664063 0 L 170.1946411132813 139.9731597900391 L 0 139.9731597900391 L 85.09732055664063 0 Z" stroke="none" fill="#707070"/>
      </g>
      <g id="Polygon_4" data-name="Polygon 4" transform="translate(-154.965 684.073) rotate(-43)" fill="#fff" opacity="0.03">
        <path d="M 169.3055267333984 139.4731597900391 L 0.8891204595565796 139.4731597900391 L 85.09732055664063 0.9624805450439453 L 169.3055267333984 139.4731597900391 Z" stroke="none"/>
        <path d="M 85.09732055664063 1.924972534179688 L 1.778244018554688 138.9731597900391 L 168.4163970947266 138.9731597900391 L 85.09732055664063 1.924972534179688 M 85.09732055664063 0 L 170.1946411132813 139.9731597900391 L 0 139.9731597900391 L 85.09732055664063 0 Z" stroke="none" fill="#707070"/>
      </g>
      <g id="Polygon_3" data-name="Polygon 3" transform="matrix(0.292, 0.956, -0.956, 0.292, 1428.236, 634.471)" fill="#fff" opacity="0.03">
        <path d="M 169.3055267333984 139.4731597900391 L 0.8891204595565796 139.4731597900391 L 85.09732055664063 0.9624805450439453 L 169.3055267333984 139.4731597900391 Z" stroke="none"/>
        <path d="M 85.09732055664063 1.924972534179688 L 1.778244018554688 138.9731597900391 L 168.4163970947266 138.9731597900391 L 85.09732055664063 1.924972534179688 M 85.09732055664063 0 L 170.1946411132813 139.9731597900391 L 0 139.9731597900391 L 85.09732055664063 0 Z" stroke="none" fill="#707070"/>
      </g>
      <g id="Exclusion_1" data-name="Exclusion 1" transform="translate(-24725 1058.998)" fill="#fff" opacity="0.03">
        <path d="M 24806.501953125 -870.498291015625 C 24797.953125 -870.498291015625 24789.408203125 -871.3595581054688 24781.107421875 -873.0581665039063 C 24773.015625 -874.7139892578125 24765.05859375 -877.1840209960938 24757.458984375 -880.399658203125 C 24749.998046875 -883.5547485351563 24742.796875 -887.4632568359375 24736.0546875 -892.0165405273438 C 24729.375 -896.529296875 24723.1015625 -901.705810546875 24717.408203125 -907.4022827148438 C 24711.7109375 -913.0986328125 24706.533203125 -919.3726806640625 24702.021484375 -926.0502319335938 C 24697.47265625 -932.7819213867188 24693.564453125 -939.9827880859375 24690.404296875 -947.4528198242188 C 24687.185546875 -955.0607299804688 24684.71484375 -963.0179443359375 24683.0625 -971.103271484375 C 24681.36328125 -979.4022216796875 24680.501953125 -987.9458618164063 24680.501953125 -996.4970703125 C 24680.501953125 -1005.048950195313 24681.36328125 -1013.59326171875 24683.0625 -1021.892761230469 C 24684.71484375 -1029.978637695313 24687.185546875 -1037.936401367188 24690.404296875 -1045.544799804688 C 24693.564453125 -1053.015747070313 24697.47265625 -1060.217041015625 24702.021484375 -1066.948608398438 C 24706.52734375 -1073.620483398438 24711.705078125 -1079.894775390625 24717.408203125 -1085.597045898438 C 24723.10546875 -1091.298217773438 24729.37890625 -1096.474853515625 24736.0546875 -1100.9833984375 C 24742.796875 -1105.536987304688 24749.998046875 -1109.445556640625 24757.458984375 -1112.600463867188 C 24765.05859375 -1115.816162109375 24773.015625 -1118.286254882813 24781.107421875 -1119.942138671875 C 24789.408203125 -1121.640747070313 24797.953125 -1122.502075195313 24806.501953125 -1122.502075195313 C 24815.05078125 -1122.502075195313 24823.595703125 -1121.640747070313 24831.896484375 -1119.942138671875 C 24839.984375 -1118.287109375 24847.94140625 -1115.817016601563 24855.544921875 -1112.6005859375 C 24863.0078125 -1109.4453125 24870.20703125 -1105.536743164063 24876.94921875 -1100.9833984375 C 24883.623046875 -1096.474853515625 24889.896484375 -1091.298217773438 24895.595703125 -1085.59716796875 C 24901.298828125 -1079.896362304688 24906.474609375 -1073.622192382813 24910.98046875 -1066.94873046875 C 24915.53125 -1060.216796875 24919.439453125 -1053.015502929688 24922.59765625 -1045.544921875 C 24925.81640625 -1037.936401367188 24928.287109375 -1029.978637695313 24929.939453125 -1021.892883300781 C 24931.638671875 -1013.59326171875 24932.5 -1005.048950195313 24932.5 -996.4970703125 C 24932.5 -987.9458618164063 24931.638671875 -979.4022216796875 24929.939453125 -971.1033935546875 C 24928.287109375 -963.0179443359375 24925.81640625 -955.0607299804688 24922.59765625 -947.4528198242188 C 24919.439453125 -939.9827880859375 24915.53125 -932.781982421875 24910.98046875 -926.0503540039063 C 24906.478515625 -919.3827514648438 24901.302734375 -913.1088256835938 24895.595703125 -907.4024047851563 C 24889.896484375 -901.701904296875 24883.623046875 -896.525390625 24876.94921875 -892.0165405273438 C 24870.20703125 -887.463134765625 24863.005859375 -883.5546264648438 24855.544921875 -880.399658203125 C 24847.94140625 -877.1831665039063 24839.984375 -874.713134765625 24831.896484375 -873.0581665039063 C 24823.595703125 -871.3595581054688 24815.05078125 -870.498291015625 24806.501953125 -870.498291015625 Z M 24808.998046875 -1072.498291015625 C 24765.71484375 -1072.498291015625 24730.5 -1037.284301757813 24730.5 -994.0003662109375 C 24730.5 -950.7164306640625 24765.71484375 -915.5023193359375 24808.998046875 -915.5023193359375 C 24852.28515625 -915.5023193359375 24887.501953125 -950.7164306640625 24887.501953125 -994.0003662109375 C 24887.501953125 -1037.284301757813 24852.28515625 -1072.498291015625 24808.998046875 -1072.498291015625 Z" stroke="none"/>
        <path d="M 24806.501953125 -870.998291015625 C 24815.017578125 -870.998291015625 24823.52734375 -871.8561401367188 24831.794921875 -873.5479736328125 C 24839.8515625 -875.1964111328125 24847.775390625 -877.6565551757813 24855.3515625 -880.8601684570313 C 24862.78125 -884.0025634765625 24869.955078125 -887.8955078125 24876.66796875 -892.4308471679688 C 24883.31640625 -896.9218139648438 24889.564453125 -902.0779418945313 24895.2421875 -907.7559204101563 C 24900.92578125 -913.4397583007813 24906.08203125 -919.68896484375 24910.56640625 -926.3303833007813 C 24915.099609375 -933.03515625 24918.9921875 -940.207275390625 24922.13671875 -947.6475830078125 C 24925.34375 -955.2251586914063 24927.802734375 -963.1504516601563 24929.44921875 -971.2036743164063 C 24931.142578125 -979.4696655273438 24932 -987.9795532226563 24932 -996.4970703125 C 24932 -1005.015258789063 24931.142578125 -1013.52587890625 24929.44921875 -1021.792724609375 C 24927.802734375 -1029.84619140625 24925.34375 -1037.77197265625 24922.13671875 -1045.350219726563 C 24918.9921875 -1052.791137695313 24915.099609375 -1059.963623046875 24910.56640625 -1066.6689453125 C 24906.078125 -1073.31591796875 24900.921875 -1079.565307617188 24895.2421875 -1085.24365234375 C 24889.564453125 -1090.922241210938 24883.31640625 -1096.078369140625 24876.66796875 -1100.569091796875 C 24869.955078125 -1105.104370117188 24862.783203125 -1108.997314453125 24855.3515625 -1112.140014648438 C 24847.775390625 -1115.343627929688 24839.8515625 -1117.803833007813 24831.794921875 -1119.452270507813 C 24823.52734375 -1121.144165039063 24815.017578125 -1122.002075195313 24806.501953125 -1122.002075195313 C 24797.986328125 -1122.002075195313 24789.4765625 -1121.144165039063 24781.208984375 -1119.452270507813 C 24773.1484375 -1117.802978515625 24765.22265625 -1115.3427734375 24757.65234375 -1112.140014648438 C 24750.22265625 -1108.99755859375 24743.048828125 -1105.1044921875 24736.3359375 -1100.568969726563 C 24729.685546875 -1096.078369140625 24723.4375 -1090.922241210938 24717.76171875 -1085.243530273438 C 24712.080078125 -1079.563598632813 24706.923828125 -1073.314208984375 24702.435546875 -1066.668579101563 C 24697.904296875 -1059.963623046875 24694.01171875 -1052.791137695313 24690.865234375 -1045.349975585938 C 24687.658203125 -1037.77197265625 24685.19921875 -1029.84619140625 24683.552734375 -1021.792541503906 C 24681.859375 -1013.52587890625 24681.001953125 -1005.015258789063 24681.001953125 -996.4970703125 C 24681.001953125 -987.9795532226563 24681.859375 -979.4696655273438 24683.552734375 -971.2034301757813 C 24685.19921875 -963.1504516601563 24687.658203125 -955.2251586914063 24690.865234375 -947.6476440429688 C 24694.01171875 -940.2073974609375 24697.904296875 -933.03515625 24702.435546875 -926.3301391601563 C 24706.9296875 -919.6790771484375 24712.0859375 -913.4298095703125 24717.76171875 -907.7557373046875 C 24723.43359375 -902.081787109375 24729.681640625 -896.92578125 24736.3359375 -892.430908203125 C 24743.048828125 -887.8956298828125 24750.220703125 -884.0027465820313 24757.65234375 -880.860107421875 C 24765.224609375 -877.6572875976563 24773.1484375 -875.1971435546875 24781.208984375 -873.5479736328125 C 24789.4765625 -871.8561401367188 24797.986328125 -870.998291015625 24806.501953125 -870.998291015625 M 24808.998046875 -1072.998291015625 C 24852.560546875 -1072.998291015625 24888.001953125 -1037.559936523438 24888.001953125 -994.0003662109375 C 24888.001953125 -950.440673828125 24852.560546875 -915.0023193359375 24808.998046875 -915.0023193359375 C 24765.4375 -915.0023193359375 24730 -950.440673828125 24730 -994.0003662109375 C 24730 -1037.559936523438 24765.4375 -1072.998291015625 24808.998046875 -1072.998291015625 M 24806.501953125 -869.998291015625 C 24797.919921875 -869.998291015625 24789.341796875 -870.8629760742188 24781.0078125 -872.5682983398438 C 24772.8828125 -874.2308959960938 24764.89453125 -876.7108154296875 24757.263671875 -879.9391479492188 C 24749.76953125 -883.108154296875 24742.541015625 -887.0321655273438 24735.775390625 -891.6022338867188 C 24729.0703125 -896.1321411132813 24722.771484375 -901.3291015625 24717.0546875 -907.048828125 C 24711.328125 -912.7734375 24706.1328125 -919.072265625 24701.607421875 -925.7703247070313 C 24697.0390625 -932.5308837890625 24693.115234375 -939.7603759765625 24689.943359375 -947.2579956054688 C 24686.712890625 -954.894287109375 24684.232421875 -962.8833618164063 24682.572265625 -971.0031127929688 C 24680.8671875 -979.3327026367188 24680.001953125 -987.9100952148438 24680.001953125 -996.4970703125 C 24680.001953125 -1005.084716796875 24680.8671875 -1013.662780761719 24682.572265625 -1021.993041992188 C 24684.232421875 -1030.113403320313 24686.712890625 -1038.102905273438 24689.943359375 -1045.739624023438 C 24693.115234375 -1053.237915039063 24697.0390625 -1060.467895507813 24701.607421875 -1067.228515625 C 24706.130859375 -1073.9267578125 24711.328125 -1080.225830078125 24717.0546875 -1085.95068359375 C 24722.775390625 -1091.6748046875 24729.07421875 -1096.871948242188 24735.775390625 -1101.397705078125 C 24742.541015625 -1105.9677734375 24749.76953125 -1109.891967773438 24757.263671875 -1113.06103515625 C 24764.89453125 -1116.28955078125 24772.8828125 -1118.769409179688 24781.0078125 -1120.432006835938 C 24789.341796875 -1122.137451171875 24797.919921875 -1123.002075195313 24806.501953125 -1123.002075195313 C 24815.083984375 -1123.002075195313 24823.662109375 -1122.137451171875 24831.99609375 -1120.432006835938 C 24840.1171875 -1118.770141601563 24848.10546875 -1116.290161132813 24855.740234375 -1113.06103515625 C 24863.234375 -1109.891967773438 24870.462890625 -1105.967895507813 24877.228515625 -1101.397705078125 C 24883.927734375 -1096.871948242188 24890.2265625 -1091.6748046875 24895.94921875 -1085.95068359375 C 24901.677734375 -1080.223876953125 24906.873046875 -1073.924926757813 24911.39453125 -1067.228515625 C 24915.96484375 -1060.4677734375 24919.888671875 -1053.23779296875 24923.05859375 -1045.739624023438 C 24926.2890625 -1038.102905273438 24928.76953125 -1030.113403320313 24930.4296875 -1021.993041992188 C 24932.134765625 -1013.662780761719 24933 -1005.084716796875 24933 -996.4970703125 C 24933 -987.9100952148438 24932.134765625 -979.3327026367188 24930.4296875 -971.0031127929688 C 24928.76953125 -962.8833618164063 24926.2890625 -954.894287109375 24923.05859375 -947.2579956054688 C 24919.888671875 -939.7603149414063 24915.96484375 -932.5308227539063 24911.39453125 -925.7703247070313 C 24906.873046875 -919.0741577148438 24901.67578125 -912.775390625 24895.94921875 -907.048828125 C 24890.2265625 -901.3251953125 24883.927734375 -896.1282348632813 24877.228515625 -891.6022338867188 C 24870.462890625 -887.0321655273438 24863.234375 -883.1080932617188 24855.740234375 -879.9391479492188 C 24848.10546875 -876.7100219726563 24840.1171875 -874.2301025390625 24831.99609375 -872.5682983398438 C 24823.662109375 -870.8629760742188 24815.083984375 -869.998291015625 24806.501953125 -869.998291015625 Z M 24808.998046875 -1071.998291015625 C 24765.990234375 -1071.998291015625 24731 -1037.008544921875 24731 -994.0003662109375 C 24731 -950.9921264648438 24765.990234375 -916.0023193359375 24808.998046875 -916.0023193359375 C 24852.009765625 -916.0023193359375 24887.001953125 -950.9921264648438 24887.001953125 -994.0003662109375 C 24887.001953125 -1037.008544921875 24852.009765625 -1071.998291015625 24808.998046875 -1071.998291015625 Z" stroke="none" fill="#707070"/>
      </g>
      <g id="Exclusion_2" data-name="Exclusion 2" transform="translate(-24432 1805.001)" fill="#fff" opacity="0.03">
        <path d="M 24766 -951.5001220703125 C 24760.201171875 -951.5001220703125 24754.404296875 -952.0845336914063 24748.767578125 -953.2371826171875 C 24743.279296875 -954.3603515625 24737.880859375 -956.0364379882813 24732.72265625 -958.21875 C 24727.662109375 -960.3592529296875 24722.775390625 -963.011474609375 24718.197265625 -966.1017456054688 C 24713.66796875 -969.1622924804688 24709.41015625 -972.6749877929688 24705.544921875 -976.5420532226563 C 24701.677734375 -980.4067993164063 24698.166015625 -984.6641235351563 24695.10546875 -989.1959228515625 C 24692.017578125 -993.7654418945313 24689.365234375 -998.6516723632813 24687.22265625 -1003.719116210938 C 24685.041015625 -1008.868469238281 24683.365234375 -1014.267822265625 24682.240234375 -1019.767395019531 C 24681.087890625 -1025.389892578125 24680.50390625 -1031.187377929688 24680.50390625 -1036.9990234375 C 24680.50390625 -1042.811157226563 24681.087890625 -1048.609008789063 24682.240234375 -1054.231811523438 C 24683.365234375 -1059.73193359375 24685.041015625 -1065.131591796875 24687.22265625 -1070.281005859375 C 24689.365234375 -1075.349365234375 24692.017578125 -1080.23583984375 24695.10546875 -1084.805053710938 C 24698.166015625 -1089.3369140625 24701.677734375 -1093.594482421875 24705.544921875 -1097.45947265625 C 24709.4140625 -1101.329833984375 24713.671875 -1104.842529296875 24718.197265625 -1107.900268554688 C 24722.775390625 -1110.99072265625 24727.662109375 -1113.642944335938 24732.72265625 -1115.783325195313 C 24737.87890625 -1117.965454101563 24743.279296875 -1119.641479492188 24748.767578125 -1120.765014648438 C 24754.40234375 -1121.917602539063 24760.201171875 -1122.502075195313 24766 -1122.502075195313 C 24771.802734375 -1122.502075195313 24777.6015625 -1121.917602539063 24783.232421875 -1120.765014648438 C 24788.71875 -1119.642578125 24794.119140625 -1117.966430664063 24799.28125 -1115.783203125 C 24804.341796875 -1113.642822265625 24809.228515625 -1110.990600585938 24813.806640625 -1107.900146484375 C 24818.33203125 -1104.842529296875 24822.58984375 -1101.329711914063 24826.458984375 -1097.459594726563 C 24830.326171875 -1093.59326171875 24833.837890625 -1089.335693359375 24836.8984375 -1084.80517578125 C 24839.986328125 -1080.235595703125 24842.638671875 -1075.34912109375 24844.78125 -1070.28125 C 24846.966796875 -1065.114013671875 24848.642578125 -1059.714233398438 24849.763671875 -1054.23193359375 C 24850.916015625 -1048.590087890625 24851.5 -1042.792114257813 24851.5 -1036.9990234375 C 24851.5 -1031.206420898438 24850.916015625 -1025.408813476563 24849.763671875 -1019.767272949219 C 24848.642578125 -1014.28564453125 24846.966796875 -1008.886169433594 24844.78125 -1003.719055175781 C 24842.638671875 -998.6516723632813 24839.986328125 -993.7654418945313 24836.8984375 -989.1961059570313 C 24833.84765625 -984.6774291992188 24830.333984375 -980.4200439453125 24826.458984375 -976.5420532226563 C 24822.58984375 -972.6723022460938 24818.33203125 -969.15966796875 24813.806640625 -966.1016845703125 C 24809.228515625 -963.0114135742188 24804.341796875 -960.3591918945313 24799.28125 -958.2188110351563 C 24794.119140625 -956.0355834960938 24788.71875 -954.3594970703125 24783.232421875 -953.2371826171875 C 24777.599609375 -952.0845336914063 24771.802734375 -951.5001220703125 24766 -951.5001220703125 Z M 24767.69921875 -1088.82763671875 C 24738.18359375 -1088.82763671875 24714.171875 -1064.81591796875 24714.171875 -1035.301635742188 C 24714.171875 -1005.787231445313 24738.18359375 -981.7755126953125 24767.69921875 -981.7755126953125 C 24797.216796875 -981.7755126953125 24821.23046875 -1005.787231445313 24821.23046875 -1035.301635742188 C 24821.23046875 -1064.81591796875 24797.216796875 -1088.82763671875 24767.69921875 -1088.82763671875 Z" stroke="none"/>
        <path d="M 24766 -952.0001220703125 C 24771.76953125 -952.0001220703125 24777.533203125 -952.5811157226563 24783.130859375 -953.72705078125 C 24788.5859375 -954.8427734375 24793.955078125 -956.5089721679688 24799.087890625 -958.6793212890625 C 24804.1171875 -960.8071899414063 24808.9765625 -963.44384765625 24813.525390625 -966.5159912109375 C 24818.02734375 -969.55615234375 24822.2578125 -973.04833984375 24826.10546875 -976.8955078125 C 24829.958984375 -980.7509765625 24833.44921875 -984.983642578125 24836.484375 -989.4760131835938 C 24839.552734375 -994.0186157226563 24842.189453125 -998.876220703125 24844.3203125 -1003.913757324219 C 24846.494140625 -1009.050476074219 24848.16015625 -1014.418151855469 24849.2734375 -1019.867309570313 C 24850.419921875 -1025.475952148438 24851 -1031.239868164063 24851 -1036.9990234375 C 24851 -1042.758544921875 24850.419921875 -1048.52294921875 24849.2734375 -1054.1318359375 C 24848.16015625 -1059.581665039063 24846.494140625 -1064.949584960938 24844.3203125 -1070.086547851563 C 24842.189453125 -1075.12451171875 24839.552734375 -1079.982421875 24836.484375 -1084.525390625 C 24833.44140625 -1089.029418945313 24829.951171875 -1093.26220703125 24826.10546875 -1097.106079101563 C 24822.2578125 -1100.953735351563 24818.025390625 -1104.446044921875 24813.525390625 -1107.48583984375 C 24808.9765625 -1110.55810546875 24804.1171875 -1113.19482421875 24799.087890625 -1115.32275390625 C 24793.955078125 -1117.493041992188 24788.5859375 -1119.159301757813 24783.130859375 -1120.275146484375 C 24777.533203125 -1121.421020507813 24771.76953125 -1122.002075195313 24766 -1122.002075195313 C 24760.234375 -1122.002075195313 24754.470703125 -1121.421020507813 24748.869140625 -1120.275146484375 C 24743.41015625 -1119.158325195313 24738.044921875 -1117.492065429688 24732.916015625 -1115.32275390625 C 24727.88671875 -1113.195068359375 24723.02734375 -1110.558227539063 24718.478515625 -1107.485961914063 C 24713.978515625 -1104.446044921875 24709.74609375 -1100.953735351563 24705.8984375 -1097.105712890625 C 24702.052734375 -1093.263427734375 24698.5625 -1089.03076171875 24695.51953125 -1084.525146484375 C 24692.451171875 -1079.982666015625 24689.814453125 -1075.124877929688 24687.681640625 -1070.086059570313 C 24685.513671875 -1064.967163085938 24683.84765625 -1059.599365234375 24682.73046875 -1054.131469726563 C 24681.583984375 -1048.541625976563 24681.00390625 -1042.777465820313 24681.00390625 -1036.9990234375 C 24681.00390625 -1031.220947265625 24681.583984375 -1025.457275390625 24682.73046875 -1019.867614746094 C 24683.84765625 -1014.400451660156 24685.513671875 -1009.033020019531 24687.68359375 -1003.913879394531 C 24689.814453125 -998.876220703125 24692.451171875 -994.0186157226563 24695.51953125 -989.4757080078125 C 24698.5625 -984.9703369140625 24702.052734375 -980.7379150390625 24705.8984375 -976.8955078125 C 24709.7421875 -973.0509643554688 24713.974609375 -969.5587768554688 24718.478515625 -966.5161743164063 C 24723.02734375 -963.4439086914063 24727.88671875 -960.8071899414063 24732.916015625 -958.6792602539063 C 24738.044921875 -956.509765625 24743.412109375 -954.8436279296875 24748.869140625 -953.72705078125 C 24754.470703125 -952.5811157226563 24760.234375 -952.0001220703125 24766 -952.0001220703125 M 24767.69921875 -1089.32763671875 C 24797.4921875 -1089.32763671875 24821.73046875 -1065.091674804688 24821.73046875 -1035.301635742188 C 24821.73046875 -1005.511535644531 24797.4921875 -981.2755126953125 24767.69921875 -981.2755126953125 C 24737.908203125 -981.2755126953125 24713.671875 -1005.511535644531 24713.671875 -1035.301635742188 C 24713.671875 -1065.091674804688 24737.908203125 -1089.32763671875 24767.69921875 -1089.32763671875 M 24766 -951.0001220703125 C 24760.16796875 -951.0001220703125 24754.3359375 -951.5880126953125 24748.66796875 -952.747314453125 C 24743.14453125 -953.8775634765625 24737.71484375 -955.5635986328125 24732.52734375 -957.75830078125 C 24727.43359375 -959.9127197265625 24722.51953125 -962.5804443359375 24717.91796875 -965.6873779296875 C 24713.359375 -968.7669677734375 24709.078125 -972.300048828125 24705.19140625 -976.1885986328125 C 24701.296875 -980.080322265625 24697.765625 -984.362548828125 24694.69140625 -988.9161376953125 C 24691.5859375 -993.51220703125 24688.91796875 -998.4271240234375 24686.76171875 -1003.524291992188 C 24684.5625 -1008.7158203125 24682.87890625 -1014.147094726563 24681.75 -1019.667236328125 C 24680.58984375 -1025.329956054688 24680.00390625 -1031.161254882813 24680.00390625 -1036.9990234375 C 24680.00390625 -1042.837158203125 24680.58984375 -1048.6689453125 24681.75 -1054.332153320313 C 24682.87890625 -1059.852661132813 24684.5625 -1065.284301757813 24686.76171875 -1070.47607421875 C 24688.91796875 -1075.573608398438 24691.5859375 -1080.488891601563 24694.69140625 -1085.0849609375 C 24697.765625 -1089.638793945313 24701.296875 -1093.921142578125 24705.19140625 -1097.813110351563 C 24709.08203125 -1101.70458984375 24713.36328125 -1105.23779296875 24717.91796875 -1108.314575195313 C 24722.51953125 -1111.421508789063 24727.43359375 -1114.08935546875 24732.52734375 -1116.243774414063 C 24737.71484375 -1118.438598632813 24743.14453125 -1120.12451171875 24748.66796875 -1121.2548828125 C 24754.3359375 -1122.414306640625 24760.16796875 -1123.002075195313 24766 -1123.002075195313 C 24771.8359375 -1123.002075195313 24777.66796875 -1122.414306640625 24783.33203125 -1121.2548828125 C 24788.85546875 -1120.125 24794.28515625 -1118.439086914063 24799.4765625 -1116.243774414063 C 24804.5703125 -1114.08935546875 24809.484375 -1111.421630859375 24814.0859375 -1108.314575195313 C 24818.640625 -1105.23779296875 24822.921875 -1101.70458984375 24826.8125 -1097.813110351563 C 24830.70703125 -1093.919799804688 24834.23828125 -1089.637451171875 24837.3125 -1085.0849609375 C 24840.41796875 -1080.48876953125 24843.0859375 -1075.573608398438 24845.2421875 -1070.47607421875 C 24847.4375 -1065.284301757813 24849.125 -1059.852661132813 24850.25390625 -1054.332153320313 C 24851.41015625 -1048.6689453125 24852 -1042.837158203125 24852 -1036.9990234375 C 24852 -1031.161254882813 24851.41015625 -1025.329956054688 24850.25390625 -1019.667236328125 C 24849.125 -1014.147094726563 24847.4375 -1008.7158203125 24845.2421875 -1003.524291992188 C 24843.0859375 -998.4271240234375 24840.41796875 -993.51220703125 24837.3125 -988.9161376953125 C 24834.23828125 -984.3638916015625 24830.703125 -980.0816650390625 24826.8125 -976.1885986328125 C 24822.921875 -972.29736328125 24818.640625 -968.7642822265625 24814.0859375 -965.6873779296875 C 24809.484375 -962.5804443359375 24804.5703125 -959.9127197265625 24799.4765625 -957.75830078125 C 24794.28515625 -955.56298828125 24788.85546875 -953.8770751953125 24783.33203125 -952.747314453125 C 24777.66796875 -951.5880126953125 24771.8359375 -951.0001220703125 24766 -951.0001220703125 Z M 24767.69921875 -1088.32763671875 C 24738.4609375 -1088.32763671875 24714.671875 -1064.540283203125 24714.671875 -1035.301635742188 C 24714.671875 -1006.06298828125 24738.4609375 -982.2755126953125 24767.69921875 -982.2755126953125 C 24796.94140625 -982.2755126953125 24820.73046875 -1006.06298828125 24820.73046875 -1035.301635742188 C 24820.73046875 -1064.540283203125 24796.94140625 -1088.32763671875 24767.69921875 -1088.32763671875 Z" stroke="none" fill="#707070"/>
      </g>
      <g id="Exclusion_3" data-name="Exclusion 3" transform="translate(-23689.816 1855.943)" fill="#fff" opacity="0.03">
        <path d="M 24715.060546875 -1053.383422851563 C 24712.71484375 -1053.383422851563 24710.37109375 -1053.61962890625 24708.095703125 -1054.085571289063 C 24705.880859375 -1054.538940429688 24703.697265625 -1055.21630859375 24701.609375 -1056.098999023438 C 24699.5625 -1056.965698242188 24697.587890625 -1058.037719726563 24695.740234375 -1059.28515625 C 24693.908203125 -1060.523071289063 24692.185546875 -1061.94287109375 24690.625 -1063.505249023438 C 24689.060546875 -1065.068237304688 24687.640625 -1066.788940429688 24686.40625 -1068.619873046875 C 24685.154296875 -1070.473754882813 24684.08203125 -1072.44873046875 24683.21875 -1074.490356445313 C 24682.3359375 -1076.576904296875 24681.658203125 -1078.75927734375 24681.205078125 -1080.976684570313 C 24680.740234375 -1083.247680664063 24680.50390625 -1085.591186523438 24680.50390625 -1087.94189453125 C 24680.50390625 -1090.292724609375 24680.740234375 -1092.636352539063 24681.205078125 -1094.90771484375 C 24681.658203125 -1097.125122070313 24682.3359375 -1099.3076171875 24683.21875 -1101.39453125 C 24684.08203125 -1103.436401367188 24685.154296875 -1105.411499023438 24686.40625 -1107.264770507813 C 24687.640625 -1109.095947265625 24689.060546875 -1110.816650390625 24690.625 -1112.379638671875 C 24692.193359375 -1113.947631835938 24693.9140625 -1115.367553710938 24695.740234375 -1116.599975585938 C 24697.587890625 -1117.84765625 24699.5625 -1118.919677734375 24701.609375 -1119.786499023438 C 24703.697265625 -1120.668823242188 24705.87890625 -1121.346313476563 24708.095703125 -1121.799926757813 C 24710.37109375 -1122.265869140625 24712.71484375 -1122.502075195313 24715.060546875 -1122.502075195313 C 24717.40625 -1122.502075195313 24719.75 -1122.265869140625 24722.02734375 -1121.799926757813 C 24724.244140625 -1121.34619140625 24726.427734375 -1120.668701171875 24728.51171875 -1119.786499023438 C 24730.560546875 -1118.921020507813 24732.53515625 -1117.848999023438 24734.384765625 -1116.600219726563 C 24736.21484375 -1115.3623046875 24737.935546875 -1113.9423828125 24739.498046875 -1112.3798828125 C 24741.060546875 -1110.81787109375 24742.48046875 -1109.096923828125 24743.71875 -1107.264770507813 C 24744.966796875 -1105.416625976563 24746.0390625 -1103.441528320313 24746.904296875 -1101.394409179688 C 24747.791015625 -1099.298828125 24748.46875 -1097.116455078125 24748.91796875 -1094.907958984375 C 24749.384765625 -1092.620727539063 24749.62109375 -1090.276977539063 24749.62109375 -1087.94189453125 C 24749.62109375 -1085.60693359375 24749.384765625 -1083.263427734375 24748.91796875 -1080.976196289063 C 24748.46875 -1078.767944335938 24747.791015625 -1076.585693359375 24746.904296875 -1074.490234375 C 24746.0390625 -1072.443603515625 24744.966796875 -1070.468627929688 24743.71875 -1068.620239257813 C 24742.484375 -1066.793579101563 24741.064453125 -1065.072631835938 24739.498046875 -1063.505249023438 C 24737.9375 -1061.943481445313 24736.216796875 -1060.523559570313 24734.384765625 -1059.285034179688 C 24732.53515625 -1058.036376953125 24730.560546875 -1056.96435546875 24728.51171875 -1056.098999023438 C 24726.42578125 -1055.21630859375 24724.244140625 -1054.538940429688 24722.02734375 -1054.085571289063 C 24719.75 -1053.61962890625 24717.40625 -1053.383422851563 24715.060546875 -1053.383422851563 Z M 24715.75390625 -1109.366577148438 C 24703.55859375 -1109.366577148438 24693.63671875 -1099.445068359375 24693.63671875 -1087.249877929688 C 24693.63671875 -1075.0546875 24703.55859375 -1065.133178710938 24715.75390625 -1065.133178710938 C 24727.94921875 -1065.133178710938 24737.87109375 -1075.0546875 24737.87109375 -1087.249877929688 C 24737.87109375 -1099.445068359375 24727.94921875 -1109.366577148438 24715.75390625 -1109.366577148438 Z" stroke="none"/>
        <path d="M 24715.060546875 -1053.883422851563 C 24717.37109375 -1053.883422851563 24719.681640625 -1054.1162109375 24721.92578125 -1054.575439453125 C 24724.111328125 -1055.022216796875 24726.26171875 -1055.689697265625 24728.318359375 -1056.5595703125 C 24730.3359375 -1057.412353515625 24732.283203125 -1058.46875 24734.103515625 -1059.699340820313 C 24735.91015625 -1060.920043945313 24737.60546875 -1062.319458007813 24739.14453125 -1063.858764648438 C 24740.6875 -1065.403564453125 24742.087890625 -1067.099853515625 24743.3046875 -1068.900024414063 C 24744.53515625 -1070.7216796875 24745.591796875 -1072.668090820313 24746.443359375 -1074.684814453125 C 24747.31640625 -1076.749877929688 24747.984375 -1078.900268554688 24748.427734375 -1081.076171875 C 24748.888671875 -1083.330444335938 24749.12109375 -1085.640380859375 24749.12109375 -1087.94189453125 C 24749.12109375 -1090.243408203125 24748.888671875 -1092.553588867188 24748.427734375 -1094.80810546875 C 24747.984375 -1096.984130859375 24747.31640625 -1099.134643554688 24746.443359375 -1101.19970703125 C 24745.591796875 -1103.217041015625 24744.53515625 -1105.16357421875 24743.3046875 -1106.98486328125 C 24742.083984375 -1108.79052734375 24740.685546875 -1110.486694335938 24739.14453125 -1112.0263671875 C 24737.60546875 -1113.56640625 24735.908203125 -1114.965942382813 24734.103515625 -1116.185913085938 C 24732.283203125 -1117.416625976563 24730.3359375 -1118.473022460938 24728.318359375 -1119.325927734375 C 24726.26171875 -1120.195434570313 24724.111328125 -1120.862915039063 24721.92578125 -1121.31005859375 C 24719.681640625 -1121.769287109375 24717.37109375 -1122.002075195313 24715.060546875 -1122.002075195313 C 24712.748046875 -1122.002075195313 24710.439453125 -1121.769287109375 24708.197265625 -1121.31005859375 C 24706.01171875 -1120.863037109375 24703.861328125 -1120.195434570313 24701.8046875 -1119.326049804688 C 24699.787109375 -1118.471801757813 24697.83984375 -1117.415283203125 24696.01953125 -1116.185546875 C 24694.21875 -1114.970947265625 24692.5234375 -1113.571533203125 24690.978515625 -1112.026000976563 C 24689.4375 -1110.485595703125 24688.037109375 -1108.789794921875 24686.8203125 -1106.984985351563 C 24685.587890625 -1105.158447265625 24684.529296875 -1103.2119140625 24683.6796875 -1101.199951171875 C 24682.810546875 -1099.143310546875 24682.142578125 -1096.992553710938 24681.6953125 -1094.807373046875 C 24681.236328125 -1092.568969726563 24681.00390625 -1090.259155273438 24681.00390625 -1087.94189453125 C 24681.00390625 -1085.624755859375 24681.236328125 -1083.315063476563 24681.6953125 -1081.077026367188 C 24682.142578125 -1078.891845703125 24682.810546875 -1076.7412109375 24683.6796875 -1074.68505859375 C 24684.529296875 -1072.673217773438 24685.5859375 -1070.726928710938 24686.8203125 -1068.899536132813 C 24688.0390625 -1067.095092773438 24689.4375 -1065.399291992188 24690.978515625 -1063.858642578125 C 24692.517578125 -1062.31884765625 24694.212890625 -1060.919555664063 24696.021484375 -1059.699462890625 C 24697.83984375 -1058.470092773438 24699.787109375 -1057.41357421875 24701.802734375 -1056.5595703125 C 24703.861328125 -1055.689697265625 24706.013671875 -1055.022216796875 24708.197265625 -1054.575439453125 C 24710.439453125 -1054.1162109375 24712.748046875 -1053.883422851563 24715.060546875 -1053.883422851563 M 24715.75390625 -1109.866577148438 C 24728.224609375 -1109.866577148438 24738.37109375 -1099.720825195313 24738.37109375 -1087.249877929688 C 24738.37109375 -1074.778930664063 24728.224609375 -1064.633178710938 24715.75390625 -1064.633178710938 C 24703.283203125 -1064.633178710938 24693.13671875 -1074.778930664063 24693.13671875 -1087.249877929688 C 24693.13671875 -1099.720825195313 24703.283203125 -1109.866577148438 24715.75390625 -1109.866577148438 M 24715.060546875 -1052.883422851563 C 24712.68359375 -1052.883422851563 24710.3046875 -1053.123046875 24707.99609375 -1053.595703125 C 24705.744140625 -1054.056396484375 24703.53125 -1054.743774414063 24701.4140625 -1055.638427734375 C 24699.33984375 -1056.516723632813 24697.3359375 -1057.604248046875 24695.4609375 -1058.870849609375 C 24693.6015625 -1060.126220703125 24691.85546875 -1061.566528320313 24690.271484375 -1063.15185546875 C 24688.68359375 -1064.73828125 24687.244140625 -1066.484008789063 24685.9921875 -1068.34033203125 C 24684.7265625 -1070.213989257813 24683.63671875 -1072.217529296875 24682.7578125 -1074.295532226563 C 24681.86328125 -1076.411865234375 24681.17578125 -1078.6259765625 24680.71484375 -1080.876342773438 C 24680.2421875 -1083.184814453125 24680.00390625 -1085.56201171875 24680.00390625 -1087.94189453125 C 24680.00390625 -1090.321899414063 24680.2421875 -1092.69921875 24680.71484375 -1095.007934570313 C 24681.17578125 -1097.258422851563 24681.86328125 -1099.47265625 24682.7578125 -1101.589233398438 C 24683.63671875 -1103.667236328125 24684.7265625 -1105.671020507813 24685.9921875 -1107.544677734375 C 24687.244140625 -1109.401123046875 24688.68359375 -1111.146850585938 24690.271484375 -1112.7333984375 C 24691.857421875 -1114.31982421875 24693.6015625 -1115.76025390625 24695.4609375 -1117.014526367188 C 24697.3359375 -1118.281127929688 24699.33984375 -1119.36865234375 24701.4140625 -1120.246948242188 C 24703.53125 -1121.141723632813 24705.744140625 -1121.828979492188 24707.99609375 -1122.289794921875 C 24710.3046875 -1122.762451171875 24712.68359375 -1123.002075195313 24715.060546875 -1123.002075195313 C 24717.44140625 -1123.002075195313 24719.81640625 -1122.762451171875 24722.126953125 -1122.289794921875 C 24724.37890625 -1121.8291015625 24726.591796875 -1121.141845703125 24728.70703125 -1120.246948242188 C 24730.78515625 -1119.36865234375 24732.7890625 -1118.281127929688 24734.6640625 -1117.014526367188 C 24736.51953125 -1115.76025390625 24738.265625 -1114.31982421875 24739.8515625 -1112.7333984375 C 24741.439453125 -1111.146240234375 24742.87890625 -1109.400634765625 24744.1328125 -1107.544677734375 C 24745.3984375 -1105.671020507813 24746.486328125 -1103.667236328125 24747.365234375 -1101.589233398438 C 24748.259765625 -1099.47265625 24748.94921875 -1097.258422851563 24749.408203125 -1095.007934570313 C 24749.87890625 -1092.69921875 24750.12109375 -1090.321899414063 24750.12109375 -1087.94189453125 C 24750.12109375 -1085.56201171875 24749.87890625 -1083.184814453125 24749.408203125 -1080.876342773438 C 24748.94921875 -1078.6259765625 24748.259765625 -1076.411865234375 24747.365234375 -1074.295532226563 C 24746.486328125 -1072.217529296875 24745.3984375 -1070.213989257813 24744.1328125 -1068.34033203125 C 24742.87890625 -1066.484497070313 24741.4375 -1064.73876953125 24739.8515625 -1063.15185546875 C 24738.265625 -1061.5654296875 24736.51953125 -1060.125244140625 24734.6640625 -1058.870849609375 C 24732.7890625 -1057.604248046875 24730.78515625 -1056.516723632813 24728.70703125 -1055.638427734375 C 24726.591796875 -1054.743530273438 24724.37890625 -1054.05615234375 24722.126953125 -1053.595703125 C 24719.81640625 -1053.123046875 24717.44140625 -1052.883422851563 24715.060546875 -1052.883422851563 Z M 24715.75390625 -1108.866577148438 C 24703.833984375 -1108.866577148438 24694.13671875 -1099.16943359375 24694.13671875 -1087.249877929688 C 24694.13671875 -1075.330444335938 24703.833984375 -1065.633178710938 24715.75390625 -1065.633178710938 C 24727.67578125 -1065.633178710938 24737.37109375 -1075.330444335938 24737.37109375 -1087.249877929688 C 24737.37109375 -1099.16943359375 24727.67578125 -1108.866577148438 24715.75390625 -1108.866577148438 Z" stroke="none" fill="#707070"/>
      </g>
      <g id="Exclusion_4" data-name="Exclusion 4" transform="translate(-23997.004 1207.322)" fill="#fff" opacity="0.03">
        <path d="M 24715.060546875 -1053.383422851563 C 24712.71484375 -1053.383422851563 24710.37109375 -1053.61962890625 24708.095703125 -1054.085571289063 C 24705.880859375 -1054.538940429688 24703.697265625 -1055.21630859375 24701.609375 -1056.098999023438 C 24699.5625 -1056.965698242188 24697.587890625 -1058.037719726563 24695.740234375 -1059.28515625 C 24693.908203125 -1060.523071289063 24692.185546875 -1061.94287109375 24690.625 -1063.505249023438 C 24689.060546875 -1065.068237304688 24687.640625 -1066.788940429688 24686.40625 -1068.619873046875 C 24685.154296875 -1070.473754882813 24684.08203125 -1072.44873046875 24683.21875 -1074.490356445313 C 24682.3359375 -1076.576904296875 24681.658203125 -1078.75927734375 24681.205078125 -1080.976684570313 C 24680.740234375 -1083.247680664063 24680.50390625 -1085.591186523438 24680.50390625 -1087.94189453125 C 24680.50390625 -1090.292724609375 24680.740234375 -1092.636352539063 24681.205078125 -1094.90771484375 C 24681.658203125 -1097.125122070313 24682.3359375 -1099.3076171875 24683.21875 -1101.39453125 C 24684.08203125 -1103.436401367188 24685.154296875 -1105.411499023438 24686.40625 -1107.264770507813 C 24687.640625 -1109.095947265625 24689.060546875 -1110.816650390625 24690.625 -1112.379638671875 C 24692.193359375 -1113.947631835938 24693.9140625 -1115.367553710938 24695.740234375 -1116.599975585938 C 24697.587890625 -1117.84765625 24699.5625 -1118.919677734375 24701.609375 -1119.786499023438 C 24703.697265625 -1120.668823242188 24705.87890625 -1121.346313476563 24708.095703125 -1121.799926757813 C 24710.37109375 -1122.265869140625 24712.71484375 -1122.502075195313 24715.060546875 -1122.502075195313 C 24717.40625 -1122.502075195313 24719.75 -1122.265869140625 24722.02734375 -1121.799926757813 C 24724.244140625 -1121.34619140625 24726.427734375 -1120.668701171875 24728.51171875 -1119.786499023438 C 24730.560546875 -1118.921020507813 24732.53515625 -1117.848999023438 24734.384765625 -1116.600219726563 C 24736.21484375 -1115.3623046875 24737.935546875 -1113.9423828125 24739.498046875 -1112.3798828125 C 24741.060546875 -1110.81787109375 24742.48046875 -1109.096923828125 24743.71875 -1107.264770507813 C 24744.966796875 -1105.416625976563 24746.0390625 -1103.441528320313 24746.904296875 -1101.394409179688 C 24747.791015625 -1099.298828125 24748.46875 -1097.116455078125 24748.91796875 -1094.907958984375 C 24749.384765625 -1092.620727539063 24749.62109375 -1090.276977539063 24749.62109375 -1087.94189453125 C 24749.62109375 -1085.60693359375 24749.384765625 -1083.263427734375 24748.91796875 -1080.976196289063 C 24748.46875 -1078.767944335938 24747.791015625 -1076.585693359375 24746.904296875 -1074.490234375 C 24746.0390625 -1072.443603515625 24744.966796875 -1070.468627929688 24743.71875 -1068.620239257813 C 24742.484375 -1066.793579101563 24741.064453125 -1065.072631835938 24739.498046875 -1063.505249023438 C 24737.9375 -1061.943481445313 24736.216796875 -1060.523559570313 24734.384765625 -1059.285034179688 C 24732.53515625 -1058.036376953125 24730.560546875 -1056.96435546875 24728.51171875 -1056.098999023438 C 24726.42578125 -1055.21630859375 24724.244140625 -1054.538940429688 24722.02734375 -1054.085571289063 C 24719.75 -1053.61962890625 24717.40625 -1053.383422851563 24715.060546875 -1053.383422851563 Z M 24715.75390625 -1109.366577148438 C 24703.55859375 -1109.366577148438 24693.63671875 -1099.445068359375 24693.63671875 -1087.249877929688 C 24693.63671875 -1075.0546875 24703.55859375 -1065.133178710938 24715.75390625 -1065.133178710938 C 24727.94921875 -1065.133178710938 24737.87109375 -1075.0546875 24737.87109375 -1087.249877929688 C 24737.87109375 -1099.445068359375 24727.94921875 -1109.366577148438 24715.75390625 -1109.366577148438 Z" stroke="none"/>
        <path d="M 24715.060546875 -1053.883422851563 C 24717.37109375 -1053.883422851563 24719.681640625 -1054.1162109375 24721.92578125 -1054.575439453125 C 24724.111328125 -1055.022216796875 24726.26171875 -1055.689697265625 24728.318359375 -1056.5595703125 C 24730.3359375 -1057.412353515625 24732.283203125 -1058.46875 24734.103515625 -1059.699340820313 C 24735.91015625 -1060.920043945313 24737.60546875 -1062.319458007813 24739.14453125 -1063.858764648438 C 24740.6875 -1065.403564453125 24742.087890625 -1067.099853515625 24743.3046875 -1068.900024414063 C 24744.53515625 -1070.7216796875 24745.591796875 -1072.668090820313 24746.443359375 -1074.684814453125 C 24747.31640625 -1076.749877929688 24747.984375 -1078.900268554688 24748.427734375 -1081.076171875 C 24748.888671875 -1083.330444335938 24749.12109375 -1085.640380859375 24749.12109375 -1087.94189453125 C 24749.12109375 -1090.243408203125 24748.888671875 -1092.553588867188 24748.427734375 -1094.80810546875 C 24747.984375 -1096.984130859375 24747.31640625 -1099.134643554688 24746.443359375 -1101.19970703125 C 24745.591796875 -1103.217041015625 24744.53515625 -1105.16357421875 24743.3046875 -1106.98486328125 C 24742.083984375 -1108.79052734375 24740.685546875 -1110.486694335938 24739.14453125 -1112.0263671875 C 24737.60546875 -1113.56640625 24735.908203125 -1114.965942382813 24734.103515625 -1116.185913085938 C 24732.283203125 -1117.416625976563 24730.3359375 -1118.473022460938 24728.318359375 -1119.325927734375 C 24726.26171875 -1120.195434570313 24724.111328125 -1120.862915039063 24721.92578125 -1121.31005859375 C 24719.681640625 -1121.769287109375 24717.37109375 -1122.002075195313 24715.060546875 -1122.002075195313 C 24712.748046875 -1122.002075195313 24710.439453125 -1121.769287109375 24708.197265625 -1121.31005859375 C 24706.01171875 -1120.863037109375 24703.861328125 -1120.195434570313 24701.8046875 -1119.326049804688 C 24699.787109375 -1118.471801757813 24697.83984375 -1117.415283203125 24696.01953125 -1116.185546875 C 24694.21875 -1114.970947265625 24692.5234375 -1113.571533203125 24690.978515625 -1112.026000976563 C 24689.4375 -1110.485595703125 24688.037109375 -1108.789794921875 24686.8203125 -1106.984985351563 C 24685.587890625 -1105.158447265625 24684.529296875 -1103.2119140625 24683.6796875 -1101.199951171875 C 24682.810546875 -1099.143310546875 24682.142578125 -1096.992553710938 24681.6953125 -1094.807373046875 C 24681.236328125 -1092.568969726563 24681.00390625 -1090.259155273438 24681.00390625 -1087.94189453125 C 24681.00390625 -1085.624755859375 24681.236328125 -1083.315063476563 24681.6953125 -1081.077026367188 C 24682.142578125 -1078.891845703125 24682.810546875 -1076.7412109375 24683.6796875 -1074.68505859375 C 24684.529296875 -1072.673217773438 24685.5859375 -1070.726928710938 24686.8203125 -1068.899536132813 C 24688.0390625 -1067.095092773438 24689.4375 -1065.399291992188 24690.978515625 -1063.858642578125 C 24692.517578125 -1062.31884765625 24694.212890625 -1060.919555664063 24696.021484375 -1059.699462890625 C 24697.83984375 -1058.470092773438 24699.787109375 -1057.41357421875 24701.802734375 -1056.5595703125 C 24703.861328125 -1055.689697265625 24706.013671875 -1055.022216796875 24708.197265625 -1054.575439453125 C 24710.439453125 -1054.1162109375 24712.748046875 -1053.883422851563 24715.060546875 -1053.883422851563 M 24715.75390625 -1109.866577148438 C 24728.224609375 -1109.866577148438 24738.37109375 -1099.720825195313 24738.37109375 -1087.249877929688 C 24738.37109375 -1074.778930664063 24728.224609375 -1064.633178710938 24715.75390625 -1064.633178710938 C 24703.283203125 -1064.633178710938 24693.13671875 -1074.778930664063 24693.13671875 -1087.249877929688 C 24693.13671875 -1099.720825195313 24703.283203125 -1109.866577148438 24715.75390625 -1109.866577148438 M 24715.060546875 -1052.883422851563 C 24712.68359375 -1052.883422851563 24710.3046875 -1053.123046875 24707.99609375 -1053.595703125 C 24705.744140625 -1054.056396484375 24703.53125 -1054.743774414063 24701.4140625 -1055.638427734375 C 24699.33984375 -1056.516723632813 24697.3359375 -1057.604248046875 24695.4609375 -1058.870849609375 C 24693.6015625 -1060.126220703125 24691.85546875 -1061.566528320313 24690.271484375 -1063.15185546875 C 24688.68359375 -1064.73828125 24687.244140625 -1066.484008789063 24685.9921875 -1068.34033203125 C 24684.7265625 -1070.213989257813 24683.63671875 -1072.217529296875 24682.7578125 -1074.295532226563 C 24681.86328125 -1076.411865234375 24681.17578125 -1078.6259765625 24680.71484375 -1080.876342773438 C 24680.2421875 -1083.184814453125 24680.00390625 -1085.56201171875 24680.00390625 -1087.94189453125 C 24680.00390625 -1090.321899414063 24680.2421875 -1092.69921875 24680.71484375 -1095.007934570313 C 24681.17578125 -1097.258422851563 24681.86328125 -1099.47265625 24682.7578125 -1101.589233398438 C 24683.63671875 -1103.667236328125 24684.7265625 -1105.671020507813 24685.9921875 -1107.544677734375 C 24687.244140625 -1109.401123046875 24688.68359375 -1111.146850585938 24690.271484375 -1112.7333984375 C 24691.857421875 -1114.31982421875 24693.6015625 -1115.76025390625 24695.4609375 -1117.014526367188 C 24697.3359375 -1118.281127929688 24699.33984375 -1119.36865234375 24701.4140625 -1120.246948242188 C 24703.53125 -1121.141723632813 24705.744140625 -1121.828979492188 24707.99609375 -1122.289794921875 C 24710.3046875 -1122.762451171875 24712.68359375 -1123.002075195313 24715.060546875 -1123.002075195313 C 24717.44140625 -1123.002075195313 24719.81640625 -1122.762451171875 24722.126953125 -1122.289794921875 C 24724.37890625 -1121.8291015625 24726.591796875 -1121.141845703125 24728.70703125 -1120.246948242188 C 24730.78515625 -1119.36865234375 24732.7890625 -1118.281127929688 24734.6640625 -1117.014526367188 C 24736.51953125 -1115.76025390625 24738.265625 -1114.31982421875 24739.8515625 -1112.7333984375 C 24741.439453125 -1111.146240234375 24742.87890625 -1109.400634765625 24744.1328125 -1107.544677734375 C 24745.3984375 -1105.671020507813 24746.486328125 -1103.667236328125 24747.365234375 -1101.589233398438 C 24748.259765625 -1099.47265625 24748.94921875 -1097.258422851563 24749.408203125 -1095.007934570313 C 24749.87890625 -1092.69921875 24750.12109375 -1090.321899414063 24750.12109375 -1087.94189453125 C 24750.12109375 -1085.56201171875 24749.87890625 -1083.184814453125 24749.408203125 -1080.876342773438 C 24748.94921875 -1078.6259765625 24748.259765625 -1076.411865234375 24747.365234375 -1074.295532226563 C 24746.486328125 -1072.217529296875 24745.3984375 -1070.213989257813 24744.1328125 -1068.34033203125 C 24742.87890625 -1066.484497070313 24741.4375 -1064.73876953125 24739.8515625 -1063.15185546875 C 24738.265625 -1061.5654296875 24736.51953125 -1060.125244140625 24734.6640625 -1058.870849609375 C 24732.7890625 -1057.604248046875 24730.78515625 -1056.516723632813 24728.70703125 -1055.638427734375 C 24726.591796875 -1054.743530273438 24724.37890625 -1054.05615234375 24722.126953125 -1053.595703125 C 24719.81640625 -1053.123046875 24717.44140625 -1052.883422851563 24715.060546875 -1052.883422851563 Z M 24715.75390625 -1108.866577148438 C 24703.833984375 -1108.866577148438 24694.13671875 -1099.16943359375 24694.13671875 -1087.249877929688 C 24694.13671875 -1075.330444335938 24703.833984375 -1065.633178710938 24715.75390625 -1065.633178710938 C 24727.67578125 -1065.633178710938 24737.37109375 -1075.330444335938 24737.37109375 -1087.249877929688 C 24737.37109375 -1099.16943359375 24727.67578125 -1108.866577148438 24715.75390625 -1108.866577148438 Z" stroke="none" fill="#707070"/>
      </g>
    </g>
  </g>
</svg>
